<svg id="Layer_1" data-name="Layer 1" xmlns="http://www.w3.org/2000/svg" viewBox="0 0 145 145"><defs><style>.cls-1{fill-rule:evenodd;}</style></defs><title>btn-close</title><path class="cls-1" d="M324,394.78a4.55,4.55,0,0,0-6.46,0l-19.47,19.47L278.85,395a4.54,4.54,0,0,0-6.42,6.42l19.21,19.21L272.33,440a4.56,4.56,0,0,0,6.44,6.46L298.1,427.1l19.2,19.2a4.52,4.52,0,0,0,6.39-6.39l-19.18-19.2L324,401.23a4.58,4.58,0,0,0,0-6.46h0ZM298.15,348.1a72.5,72.5,0,1,0,72.5,72.5,72.49,72.49,0,0,0-72.5-72.5h0Zm0,135.93a63.43,63.43,0,1,1,63.43-63.43A63.42,63.42,0,0,1,298.15,484h0Z" transform="translate(-225.65 -348.1)"/></svg>