<svg xmlns="http://www.w3.org/2000/svg" width="20" height="20" viewBox="0 0 20 20">
  <path id="Icon_ionic-md-call" data-name="Icon ionic-md-call" d="M5.611,18.389a13.041,13.041,0,0,0,3.944-.611,1.039,1.039,0,0,1,1.111.278L13.111,20.5a16.709,16.709,0,0,0,7.333-7.333L18,10.722a1.158,1.158,0,0,1-.278-1.111,12.084,12.084,0,0,0,.667-4A1.114,1.114,0,0,1,19.5,4.5h3.889A1.114,1.114,0,0,1,24.5,5.611,18.873,18.873,0,0,1,5.611,24.5,1.115,1.115,0,0,1,4.5,23.389V19.5A1.115,1.115,0,0,1,5.611,18.389Z" transform="translate(-4.5 -4.5)" fill="#fff"/>
</svg>
