<svg xmlns="http://www.w3.org/2000/svg" width="14.995" height="15.55" viewBox="0 0 14.995 15.55">
  <path id="Icon_awesome-sort-numeric-down-alt" data-name="Icon awesome-sort-numeric-down-alt" d="M6.109,13.357H4.443V2.805a.555.555,0,0,0-.555-.555H2.777a.555.555,0,0,0-.555.555V13.357H.555a.556.556,0,0,0-.392.948L2.94,17.637a.555.555,0,0,0,.785,0L6.5,14.305A.556.556,0,0,0,6.109,13.357Zm7.775,2.221h-.555V11.691a.555.555,0,0,0-.555-.555H11.107a.555.555,0,0,0-.5.306l-.555,1.111a.555.555,0,0,0,.5.8h.555v2.221h-.555a.555.555,0,0,0-.555.555v1.111a.555.555,0,0,0,.555.555h3.332a.555.555,0,0,0,.555-.555V16.134A.555.555,0,0,0,13.884,15.579ZM11.46,2.351a2.742,2.742,0,0,0-1.909,1.88A2.787,2.787,0,0,0,11.94,7.79a2.918,2.918,0,0,1-.724.448.572.572,0,0,0-.284.706l.344.694A.549.549,0,0,0,12,9.982,4.389,4.389,0,0,0,15,5.4V5.027A2.785,2.785,0,0,0,11.46,2.351Zm.758,3.37a.694.694,0,1,1,.694-.694A.694.694,0,0,1,12.218,5.721Z" transform="translate(0 -2.25)" fill="#d5d5d7"/>
</svg>
