<svg id="Icon_material-pool" data-name="Icon material-pool" xmlns="http://www.w3.org/2000/svg" width="15" height="13.5" viewBox="0 0 15 13.5">
  <defs>
    <style>
      .cls-1 {
        fill: #a3a3a3;
      }
    </style>
  </defs>
  <path id="Path_190" data-name="Path 190" class="cls-1" d="M18,18a2.869,2.869,0,0,1-1.635-.48,1.408,1.408,0,0,0-.862-.27,1.347,1.347,0,0,0-.863.27,3.025,3.025,0,0,1-3.27,0,1.408,1.408,0,0,0-.863-.27,1.347,1.347,0,0,0-.863.27A2.918,2.918,0,0,1,8,18a2.869,2.869,0,0,1-1.635-.48,1.362,1.362,0,0,0-.863-.27,1.362,1.362,0,0,0-.862.27A2.918,2.918,0,0,1,3,18V16.5a1.347,1.347,0,0,0,.862-.27A2.918,2.918,0,0,1,5.5,15.75a2.869,2.869,0,0,1,1.635.48A1.347,1.347,0,0,0,8,16.5a1.347,1.347,0,0,0,.862-.27,2.918,2.918,0,0,1,1.642-.48,2.869,2.869,0,0,1,1.635.48A1.408,1.408,0,0,0,13,16.5a1.362,1.362,0,0,0,.863-.27,3.025,3.025,0,0,1,3.27,0A1.347,1.347,0,0,0,18,16.5Zm0-3.375a2.869,2.869,0,0,1-1.635-.48,1.408,1.408,0,0,0-.862-.27,1.347,1.347,0,0,0-.863.27,3.025,3.025,0,0,1-3.27,0,1.408,1.408,0,0,0-.863-.27,1.347,1.347,0,0,0-.863.27,2.869,2.869,0,0,1-1.635.48,2.869,2.869,0,0,1-1.635-.48,1.408,1.408,0,0,0-.863-.27,1.362,1.362,0,0,0-.862.27,2.968,2.968,0,0,1-1.65.48v-1.5a1.347,1.347,0,0,0,.863-.27,2.869,2.869,0,0,1,1.635-.48,2.869,2.869,0,0,1,1.635.48,1.408,1.408,0,0,0,.863.27,1.347,1.347,0,0,0,.862-.27,3.025,3.025,0,0,1,3.27,0,1.408,1.408,0,0,0,.863.27,1.362,1.362,0,0,0,.862-.27,3.025,3.025,0,0,1,3.27,0,1.408,1.408,0,0,0,.863.27v1.5ZM8,11.25a1.347,1.347,0,0,0,.863-.27,2.918,2.918,0,0,1,1.642-.48,2.869,2.869,0,0,1,1.635.48,1.408,1.408,0,0,0,.863.27,1.362,1.362,0,0,0,.862-.27c.09-.052.2-.113.307-.172L9.36,6A4.993,4.993,0,0,0,5.25,4.5V6.375a3.69,3.69,0,0,1,3,1.125L9,8.25,6.562,10.687a4.1,4.1,0,0,1,.578.292A1.347,1.347,0,0,0,8,11.25Z" transform="translate(-3 -4.5)"/>
  <path id="Path_191" data-name="Path 191" class="cls-1" d="M28.5,8.25A3.75,3.75,0,1,1,24.75,4.5,3.75,3.75,0,0,1,28.5,8.25Z" transform="translate(-15.429 -4.5)"/>
</svg>
