<svg xmlns="http://www.w3.org/2000/svg" width="15" height="15" viewBox="0 0 15 15">
  <defs>
    <style>
      .cls-1 {
        fill: #a3a3a3;
      }
    </style>
  </defs>
  <path id="Icon_map-gym" data-name="Icon map-gym" class="cls-1" d="M6.28,14.838a.32.32,0,0,1-.016.45l-.691.646a.318.318,0,0,1-.449-.016L1.1,11.583a.32.32,0,0,1,.016-.45l.692-.645a.317.317,0,0,1,.449.016Zm5.132-8.156a.32.32,0,0,1-.016.45L7.049,11.193a.318.318,0,0,1-.449-.016l-1.038-1.12a.32.32,0,0,1,.016-.45L9.925,5.546a.317.317,0,0,1,.448.016ZM7.759,13.456a.32.32,0,0,1-.016.45l-.692.646a.317.317,0,0,1-.449-.016L2.582,10.2a.32.32,0,0,1,.016-.45l.69-.645a.318.318,0,0,1,.449.016Zm6.7-6.618a.32.32,0,0,1-.017.45l-.691.646a.318.318,0,0,1-.449-.016L9.279,3.584a.32.32,0,0,1,.016-.45l.693-.647a.317.317,0,0,1,.448.016Zm1.477-1.38a.321.321,0,0,1-.016.451l-.69.645a.317.317,0,0,1-.448-.016L10.759,2.2a.321.321,0,0,1,.016-.451l.691-.646a.316.316,0,0,1,.448.016Z" transform="translate(-1.018 -1.019)"/>
</svg>
