<svg xmlns="http://www.w3.org/2000/svg" width="30" height="30" viewBox="0 0 30 30">
  <path id="XMLID_1423_" d="M6.875,12.5v4.375a.625.625,0,0,1-1.25,0V12.5a.625.625,0,0,1,1.25,0ZM30,29.375a.625.625,0,0,1-.625.625H.625a.625.625,0,1,1,0-1.25h1.25v-20A.625.625,0,0,1,2.5,8.125H5.625V3.75a.625.625,0,0,1,.625-.625h5.028a.625.625,0,0,1,.391-.841l1.759-.545L14.518.255A.617.617,0,0,1,15.028,0a.625.625,0,0,1,.5.265l1.062,1.5,1.749.579a.625.625,0,0,1,.4.777H23.75a.625.625,0,0,1,.625.625V8.125H27.5a.625.625,0,0,1,.625.625v20h1.25A.625.625,0,0,1,30,29.375ZM12.867,3.222l.038.053a.627.627,0,0,1,.176.245l.475.661a.625.625,0,0,1,.117.373l-.016,1.18,1.124-.359a.625.625,0,0,1,.391,0l1.117.38.006-1.18a.625.625,0,0,1,.124-.371l.485-.649a.627.627,0,0,1,.209-.3l-1.108-.367a.625.625,0,0,1-.314-.233l-.68-.964-.7.951a.625.625,0,0,1-.319.227ZM12.5,24.063a2.813,2.813,0,0,0-5.625,0V28.75H12.5Zm10.625,0a2.813,2.813,0,0,0-5.625,0V28.75h5.625Zm3.75-14.687H23.75a.625.625,0,0,1-.625-.625V4.375h-5.27l-.311.416-.01,1.842a.625.625,0,0,1-.826.588l-1.744-.593-1.755.56a.625.625,0,0,1-.815-.6l.025-1.842-.263-.367H6.875V8.75a.625.625,0,0,1-.625.625H3.125V28.75h2.5V24.063a4.063,4.063,0,0,1,8.125,0V28.75h2.5V24.063a4.062,4.062,0,1,1,8.125,0V28.75h2.5ZM23.125,12.5v4.375a.625.625,0,1,0,1.25,0V12.5a.625.625,0,1,0-1.25,0Zm-3.75-3.125A.625.625,0,0,0,18.75,10v6.25a.625.625,0,0,0,1.25,0V10A.625.625,0,0,0,19.375,9.375ZM15,9.375a.625.625,0,0,0-.625.625v6.25a.625.625,0,1,0,1.25,0V10A.625.625,0,0,0,15,9.375Zm-4.375,0A.625.625,0,0,0,10,10v6.25a.625.625,0,1,0,1.25,0V10A.625.625,0,0,0,10.625,9.375Z" transform="translate(0 0)" fill="#d5d5d7"/>
</svg>
