<svg xmlns="http://www.w3.org/2000/svg" width="36.29" height="30.774" viewBox="0 0 36.29 30.774">
  <g id="house-svgrepo-com" transform="translate(0 0)">
    <path id="Path_222" data-name="Path 222" d="M35.816,87.5H17.229L13,82.989a.387.387,0,0,0-.594,0L9.013,86.608V85.4c0-.348-.212-.63-.474-.63H4.823c-.262,0-.474.282-.474.63v6.183L.177,96.031a.765.765,0,0,0-.15.7.5.5,0,0,0,.447.421H2.688v15.843c0,.348.212.63.474.63H35.816c.262,0,.474-.282.474-.63V88.128C36.29,87.78,36.078,87.5,35.816,87.5Zm-.474,1.259v7.135H25.1l-6.69-7.135ZM5.3,86.029H8.064v1.59L5.3,90.571ZM12.7,84.287l10.882,11.6H22.576L13,85.681a.387.387,0,0,0-.594,0L2.832,95.892H1.822Zm5.639,28.078H15.5v-9.653h2.846Zm14.943-8.132H24.272v-1.521h9.013Zm-9.013,1.259h9.013v1.416H24.272Zm0,2.676h9.013v1.416H24.272Zm0,2.676h9.013v1.521H24.272Zm11.069,1.521H34.234V102.083c0-.348-.212-.63-.474-.63H23.8c-.262,0-.474.282-.474.63v10.283H19.291V102.083c0-.348-.212-.63-.474-.63h-3.8c-.262,0-.474.282-.474.63v10.283H3.637V96.649l9.067-9.67,9.408,10.033a.409.409,0,0,0,.3.139H35.341Z" transform="translate(0 -82.85)" fill="#d5d5d7"/>
  </g>
</svg>
