<svg id="bunk-bed-svgrepo-com_1_" data-name="bunk-bed-svgrepo-com (1)" xmlns="http://www.w3.org/2000/svg" width="30" height="31.174" viewBox="0 0 30 31.174">
  <g id="Group_26" data-name="Group 26" transform="translate(0)">
    <g id="Group_25" data-name="Group 25">
      <path id="Path_227" data-name="Path 227" d="M39.018,0A.621.621,0,0,0,38.4.621V3.354H19.64V3.2A2.76,2.76,0,0,0,16.883.444H15.119A2.76,2.76,0,0,0,12.362,3.2v.152H10.881V.621a.621.621,0,0,0-1.242,0V30.553a.621.621,0,1,0,1.242,0V24.97H38.4v5.583a.621.621,0,1,0,1.242,0V.621A.621.621,0,0,0,39.018,0ZM38.4,4.6V8.552H19.557L23.513,4.6ZM13.6,3.2a1.517,1.517,0,0,1,1.515-1.515h1.764A1.517,1.517,0,0,1,18.4,3.2v.152H13.6ZM10.881,4.6H21.756L17.8,8.552H10.881Zm0,5.2H38.4v8.735H19.64v-.152a2.76,2.76,0,0,0-2.757-2.757H15.119a2.76,2.76,0,0,0-2.757,2.757v.152H10.881ZM18.4,18.377v.152H13.6v-.152a1.517,1.517,0,0,1,1.515-1.515h1.764A1.517,1.517,0,0,1,18.4,18.377Zm-7.517,5.351V19.771H21.756L17.8,23.727Zm27.516,0H19.557l3.956-3.956H38.4v3.956Z" transform="translate(-9.639)" fill="#fff"/>
    </g>
  </g>
</svg>
