<svg id="motel-svgrepo-com" xmlns="http://www.w3.org/2000/svg" width="40" height="21.598" viewBox="0 0 40 21.598">
  <path id="Path_226" data-name="Path 226" d="M39.5,110.759H.5a.5.5,0,0,0-.5.5v3.025a.5.5,0,0,0,.5.5H.8v17.078a.5.5,0,0,0,.5.5h37.45a.5.5,0,0,0,.5-.5V114.781H39.5a.5.5,0,0,0,.5-.5v-3.025A.5.5,0,0,0,39.5,110.759Zm-38.5,1H39v2.029H1Zm8.248,8v-2.437h1.518v2.437Zm12.434,0v-2.437H23.2v2.437Zm12.434,0v-2.437H35.63v2.437Zm4.134,2.689h-.511v-1.62h.511v1.62Zm-1.508,0H35.3v-1.62h1.443Zm-2.44-1.62v1.62H32.855v-1.62Zm-6.324,1.62v-1.62h1.443v1.62Zm2.44-1.62h1.443v1.62H30.415Zm.483-1H28.951v-1.692H30.9Zm-3.92,2.617H25.534v-1.62h1.443Zm-2.44,0H23.094v-1.62h1.443Zm-2.44-1.62v1.62H20.654v-1.62Zm-2.44,1.62H18.214v-1.62h1.443Zm-3.884,0v-1.62h1.443v1.62Zm2.691-2.617H16.517v-1.692h1.947Zm-3.688,2.617H13.333v-1.62h1.443Zm-2.44,0H10.893v-1.62h1.443v1.62Zm-2.44-1.62v1.62H8.453v-1.62Zm-2.44,1.62H6.012v-1.62H7.456v1.62Zm-3.884,0v-1.62H5.015v1.62Zm2.458-2.617H4.083v-1.692H6.03v1.692Zm-3.455,2.617H1.793v-1.62h.782Zm3.455,8.913H4.083V127.37H6.03Zm12.434,0H16.517V127.37h1.947Zm12.434,0H28.951V127.37H30.9Zm1,0v-4.489a.5.5,0,0,0-.5-.5H28.452a.5.5,0,0,0-.5.5v4.489H19.461v-4.489a.5.5,0,0,0-.5-.5H16.019a.5.5,0,0,0-.5.5v4.489H7.027v-4.489a.5.5,0,0,0-.5-.5H3.585a.5.5,0,0,0-.5.5v4.489H1.793v-7.916H38.247v7.916Zm6.352-11.529h-1.62v-3.008a.5.5,0,0,0-.5-.5H33.614a.5.5,0,0,0-.5.5v3.008H31.894v-2.19a.5.5,0,0,0-.5-.5H28.453a.5.5,0,0,0-.5.5v2.19H24.193v-3.008a.5.5,0,0,0-.5-.5H21.18a.5.5,0,0,0-.5.5v3.008H19.461v-2.19a.5.5,0,0,0-.5-.5H16.019a.5.5,0,0,0-.5.5v2.19H11.759v-3.008a.5.5,0,0,0-.5-.5H8.746a.5.5,0,0,0-.5.5v3.008H7.027v-2.19a.5.5,0,0,0-.5-.5H3.584a.5.5,0,0,0-.5.5v2.19H1.793v-5.05H38.247Z" transform="translate(0 -110.759)" fill="#fff"/>
</svg>
